<?xml version="1.0" encoding="utf-8"?>
<!-- Generator: Adobe Illustrator 19.2.0, SVG Export Plug-In . SVG Version: 6.00 Build 0)  -->
<svg version="1.1" id="Layer_1" xmlns="http://www.w3.org/2000/svg" xmlns:xlink="http://www.w3.org/1999/xlink" x="0px" y="0px"
	 viewBox="0 0 100 50" style="enable-background:new 0 0 100 50;" xml:space="preserve">
<style type="text/css">
	.st0{enable-background:new    ;}
	.st1{fill:#F1F2F2;}
</style>
<g class="st0">
	<path d="M15.3,16.6h3.8l1.7,12h0l1.7-12h3.8v16.8h-2.5V20.7h0l-1.9,12.7h-2.2l-1.9-12.7h0v12.7h-2.3V16.6z"/>
	<path d="M30.2,16.6h3.6l2.7,16.8h-2.6l-0.5-3.3v0h-3L30,33.4h-2.4L30.2,16.6z M33.1,27.8L32,19.5h0l-1.2,8.3H33.1z"/>
	<path d="M37.8,16.6h4c1.3,0,2.3,0.4,3,1.1s1,1.7,1,3.1v8.5c0,1.4-0.3,2.4-1,3.1s-1.6,1.1-3,1.1h-4V16.6z M41.8,31
		c0.4,0,0.8-0.1,1-0.4s0.3-0.7,0.3-1.2v-8.7c0-0.6-0.1-1-0.3-1.2s-0.6-0.4-1-0.4h-1.3v12H41.8z"/>
	<path d="M48.4,32.6c-0.7-0.7-1-1.7-1-3v-9c0-1.3,0.3-2.3,1-3c0.7-0.7,1.6-1.1,2.9-1.1c1.3,0,2.2,0.4,2.9,1.1s1,1.7,1,3v1.8h-2.5
		v-1.9c0-1-0.4-1.6-1.3-1.6S50,19.3,50,20.3v9.4c0,1,0.4,1.5,1.3,1.5s1.3-0.5,1.3-1.5v-2.6h2.5v2.4c0,1.3-0.3,2.3-1,3
		s-1.6,1.1-2.9,1.1C50,33.6,49.1,33.3,48.4,32.6z"/>
	<path d="M57.7,32.5c-0.7-0.7-1-1.8-1-3.1v-8.8c0-1.3,0.3-2.4,1-3.1c0.7-0.7,1.7-1.1,3-1.1c1.3,0,2.3,0.4,3,1.1c0.7,0.7,1,1.8,1,3.1
		v8.8c0,1.3-0.3,2.4-1,3.1c-0.7,0.7-1.7,1.1-3,1.1C59.3,33.6,58.3,33.3,57.7,32.5z M62,29.6v-9.2c0-1.1-0.5-1.7-1.4-1.7
		c-0.9,0-1.4,0.6-1.4,1.7v9.2c0,1.1,0.5,1.7,1.4,1.7C61.5,31.2,62,30.7,62,29.6z"/>
	<path d="M67.3,32.5c-0.7-0.7-1-1.8-1-3.1v-8.8c0-1.3,0.3-2.4,1-3.1c0.7-0.7,1.7-1.1,3-1.1s2.3,0.4,3,1.1c0.7,0.7,1,1.8,1,3.1v8.8
		c0,1.3-0.3,2.4-1,3.1c-0.7,0.7-1.7,1.1-3,1.1S67.9,33.3,67.3,32.5z M71.6,29.6v-9.2c0-1.1-0.5-1.7-1.4-1.7s-1.4,0.6-1.4,1.7v9.2
		c0,1.1,0.5,1.7,1.4,1.7S71.6,30.7,71.6,29.6z"/>
	<path d="M76,16.6h2.6v7.1l3.4-7.1h2.6l-3.1,6.2l3.2,10.6h-2.8l-2.2-7.5L78.7,28v5.4H76V16.6z"/>
</g>
<circle cx="60.6" cy="25.3" r="0.8"/>
<circle cx="70.2" cy="25.3" r="0.8"/>
<circle class="st1" cx="60.6" cy="25.3" r="0.2"/>
<circle class="st1" cx="70.2" cy="25.3" r="0.2"/>
</svg>
